solid ascii
  facet normal -1.752881e-04 9.999999e-01 3.613944e-04
    outer loop
      vertex   -5.100485e+01 9.883011e+01 -1.796112e-01
      vertex   -9.700066e+01 9.881801e+01 1.099998e+01
      vertex   -5.100885e+01 9.882607e+01 1.100000e+01
    endloop
  endfacet
  facet normal -1.752881e-04 9.999999e-01 3.585562e-04
    outer loop
      vertex   -5.100885e+01 9.882607e+01 1.100000e+01
      vertex   -9.700066e+01 9.881801e+01 1.099998e+01
      vertex   -9.700066e+01 9.881801e+01 1.100000e+01
    endloop
  endfacet
  facet normal 9.999999e-01 1.767372e-04 3.613213e-04
    outer loop
      vertex   -5.099668e+01 5.282197e+01 -1.803384e-01
      vertex   -5.100885e+01 9.882607e+01 1.100000e+01
      vertex   -5.100072e+01 5.282607e+01 1.100000e+01
    endloop
  endfacet
  facet normal 0.000000e+00 0.000000e+00 1.000000e+00
    outer loop
      vertex   -5.200072e+01 9.782607e+01 2.000000e+00
      vertex   -9.600072e+01 9.782607e+01 2.000000e+00
      vertex   -5.200072e+01 5.382607e+01 2.000000e+00
    endloop
  endfacet
  facet normal 0.000000e+00 0.000000e+00 1.000000e+00
    outer loop
      vertex   -5.200072e+01 5.382607e+01 2.000000e+00
      vertex   -9.600072e+01 9.782607e+01 2.000000e+00
      vertex   -9.600072e+01 5.382607e+01 2.000000e+00
    endloop
  endfacet
  facet normal 0.000000e+00 1.000000e+00 -1.578984e-15
    outer loop
      vertex   -9.600072e+01 5.382607e+01 2.000000e+00
      vertex   -9.600072e+01 5.382607e+01 1.100000e+01
      vertex   -5.200072e+01 5.382607e+01 2.000000e+00
    endloop
  endfacet
  facet normal 1.614870e-16 1.000000e+00 -7.894919e-16
    outer loop
      vertex   -5.200072e+01 5.382607e+01 2.000000e+00
      vertex   -9.600072e+01 5.382607e+01 1.100000e+01
      vertex   -5.200072e+01 5.382607e+01 1.100000e+01
    endloop
  endfacet
  facet normal 1.000000e+00 0.000000e+00 4.736952e-15
    outer loop
      vertex   -9.600072e+01 9.782607e+01 2.000000e+00
      vertex   -9.600072e+01 9.782607e+01 1.100000e+01
      vertex   -9.600072e+01 5.382607e+01 2.000000e+00
    endloop
  endfacet
  facet normal 1.000000e+00 6.459479e-16 1.578984e-15
    outer loop
      vertex   -9.600072e+01 5.382607e+01 2.000000e+00
      vertex   -9.600072e+01 9.782607e+01 1.100000e+01
      vertex   -9.600072e+01 5.382607e+01 1.100000e+01
    endloop
  endfacet
  facet normal 0.000000e+00 -1.000000e+00 4.736952e-15
    outer loop
      vertex   -5.200072e+01 9.782607e+01 2.000000e+00
      vertex   -5.200072e+01 9.782607e+01 1.100000e+01
      vertex   -9.600072e+01 9.782607e+01 2.000000e+00
    endloop
  endfacet
  facet normal 6.459479e-16 -1.000000e+00 1.578984e-15
    outer loop
      vertex   -9.600072e+01 9.782607e+01 2.000000e+00
      vertex   -5.200072e+01 9.782607e+01 1.100000e+01
      vertex   -9.600072e+01 9.782607e+01 1.100000e+01
    endloop
  endfacet
  facet normal -1.000000e+00 0.000000e+00 -7.894919e-16
    outer loop
      vertex   -5.200072e+01 5.382607e+01 2.000000e+00
      vertex   -5.200072e+01 5.382607e+01 1.100000e+01
      vertex   -5.200072e+01 9.782607e+01 2.000000e+00
    endloop
  endfacet
  facet normal -1.000000e+00 0.000000e+00 -7.894919e-16
    outer loop
      vertex   -5.200072e+01 9.782607e+01 2.000000e+00
      vertex   -5.200072e+01 5.382607e+01 1.100000e+01
      vertex   -5.200072e+01 9.782607e+01 1.100000e+01
    endloop
  endfacet
  facet normal 0.000000e+00 0.000000e+00 1.000000e+00
    outer loop
      vertex   -5.200072e+01 9.782607e+01 1.100000e+01
      vertex   -5.200072e+01 5.382607e+01 1.100000e+01
      vertex   -5.100072e+01 5.282607e+01 1.100000e+01
    endloop
  endfacet
  facet normal 0.000000e+00 0.000000e+00 1.000000e+00
    outer loop
      vertex   -5.100885e+01 9.882607e+01 1.100000e+01
      vertex   -5.200072e+01 9.782607e+01 1.100000e+01
      vertex   -5.100072e+01 5.282607e+01 1.100000e+01
    endloop
  endfacet
  facet normal -0.000000e+00 0.000000e+00 1.000000e+00
    outer loop
      vertex   -5.100885e+01 9.882607e+01 1.100000e+01
      vertex   -9.600072e+01 9.782607e+01 1.100000e+01
      vertex   -5.200072e+01 9.782607e+01 1.100000e+01
    endloop
  endfacet
  facet normal 0.000000e+00 0.000000e+00 1.000000e+00
    outer loop
      vertex   -5.100885e+01 9.882607e+01 1.100000e+01
      vertex   -9.700066e+01 9.881801e+01 1.100000e+01
      vertex   -9.600072e+01 9.782607e+01 1.100000e+01
    endloop
  endfacet
  facet normal 0.000000e+00 0.000000e+00 1.000000e+00
    outer loop
      vertex   -9.600072e+01 9.782607e+01 1.100000e+01
      vertex   -9.700066e+01 9.881801e+01 1.100000e+01
      vertex   -9.600072e+01 5.382607e+01 1.100000e+01
    endloop
  endfacet
  facet normal 0.000000e+00 0.000000e+00 1.000000e+00
    outer loop
      vertex   -9.600072e+01 5.382607e+01 1.100000e+01
      vertex   -9.700066e+01 9.881801e+01 1.100000e+01
      vertex   -9.700072e+01 5.282607e+01 1.100000e+01
    endloop
  endfacet
  facet normal 0.000000e+00 0.000000e+00 1.000000e+00
    outer loop
      vertex   -5.100072e+01 5.282607e+01 1.100000e+01
      vertex   -9.600072e+01 5.382607e+01 1.100000e+01
      vertex   -9.700072e+01 5.282607e+01 1.100000e+01
    endloop
  endfacet
  facet normal 0.000000e+00 0.000000e+00 1.000000e+00
    outer loop
      vertex   -5.100072e+01 5.282607e+01 1.100000e+01
      vertex   -5.200072e+01 5.382607e+01 1.100000e+01
      vertex   -9.600072e+01 5.382607e+01 1.100000e+01
    endloop
  endfacet
  facet normal 3.334732e-07 1.546431e-05 -1.000000e+00
    outer loop
      vertex   -9.700477e+01 5.282197e+01 -1.803537e-01
      vertex   -9.700470e+01 9.882202e+01 -1.796424e-01
      vertex   -5.099668e+01 5.282197e+01 -1.803384e-01
    endloop
  endfacet
  facet normal 3.334732e-07 1.546431e-05 -1.000000e+00
    outer loop
      vertex   -5.099668e+01 5.282197e+01 -1.803384e-01
      vertex   -9.700470e+01 9.882202e+01 -1.796424e-01
      vertex   -5.100485e+01 9.883011e+01 -1.796269e-01
    endloop
  endfacet
  facet normal 0.000000e+00 -9.999999e-01 3.673228e-04
    outer loop
      vertex   -9.700072e+01 5.282607e+01 1.100000e+01
      vertex   -9.700477e+01 5.282197e+01 -1.803537e-01
      vertex   -5.100072e+01 5.282607e+01 1.100000e+01
    endloop
  endfacet
  facet normal 1.991759e-12 -9.999999e-01 3.673228e-04
    outer loop
      vertex   -5.100072e+01 5.282607e+01 1.100000e+01
      vertex   -9.700477e+01 5.282197e+01 -1.803537e-01
      vertex   -5.099668e+01 5.282197e+01 -1.803384e-01
    endloop
  endfacet
  facet normal -9.999999e-01 1.388779e-06 3.613843e-04
    outer loop
      vertex   -9.700470e+01 9.882202e+01 -1.796424e-01
      vertex   -9.700477e+01 5.282197e+01 -1.803537e-01
      vertex   -9.700066e+01 9.881801e+01 1.099998e+01
    endloop
  endfacet
  facet normal -9.999999e-01 1.388779e-06 3.613843e-04
    outer loop
      vertex   -9.700066e+01 9.881801e+01 1.099998e+01
      vertex   -9.700477e+01 5.282197e+01 -1.803537e-01
      vertex   -9.700072e+01 5.282607e+01 1.100000e+01
    endloop
  endfacet
  facet normal -9.999999e-01 1.388779e-06 3.613835e-04
    outer loop
      vertex   -9.700066e+01 9.881801e+01 1.100000e+01
      vertex   -9.700066e+01 9.881801e+01 1.099998e+01
      vertex   -9.700072e+01 5.282607e+01 1.100000e+01
    endloop
  endfacet
  facet normal -1.759779e-04 9.999999e-01 3.585564e-04
    outer loop
      vertex   -9.700066e+01 9.881801e+01 1.099998e+01
      vertex   -5.100485e+01 9.883011e+01 -1.796112e-01
      vertex   -9.700470e+01 9.882202e+01 -1.796424e-01
    endloop
  endfacet
  facet normal -1.759779e-04 9.999999e-01 3.613940e-04
    outer loop
      vertex   -9.700470e+01 9.882202e+01 -1.796424e-01
      vertex   -5.100485e+01 9.883011e+01 -1.796112e-01
      vertex   -5.100485e+01 9.883011e+01 -1.796269e-01
    endloop
  endfacet
  facet normal 9.999999e-01 1.774267e-04 3.584843e-04
    outer loop
      vertex   -5.100885e+01 9.882607e+01 1.100000e+01
      vertex   -5.099668e+01 5.282197e+01 -1.803384e-01
      vertex   -5.100485e+01 9.883011e+01 -1.796112e-01
    endloop
  endfacet
  facet normal 9.999999e-01 1.774267e-04 3.584842e-04
    outer loop
      vertex   -5.100485e+01 9.883011e+01 -1.796112e-01
      vertex   -5.099668e+01 5.282197e+01 -1.803384e-01
      vertex   -5.100485e+01 9.883011e+01 -1.796269e-01
    endloop
  endfacet
endsolid
